<?xml version="1.0" encoding="UTF-8"?>
<svg id="Layer_1" xmlns="http://www.w3.org/2000/svg" xmlns:xlink="http://www.w3.org/1999/xlink" viewBox="0 0 466.8 734.6">
<defs>
<style>
.cls-1{font-size:60px;}
.cls-1,.cls-2{font-family:VTCSpikeTrial-Bold, 'VTC Spike Trial';font-weight:700;}
.cls-1,.cls-2,.cls-3{isolation:isolate;}
.cls-1,.cls-2,.cls-4{fill:#fff;}
.cls-2{font-size:200px;}
.cls-5{letter-spacing:0em;}
.cls-6{fill:#ef5046;}
.cls-6,.cls-7,.cls-4{stroke-width:0px;}
.cls-7{fill:#212121;}
.cls-8{letter-spacing:-.03em;}
</style>
</defs>
<path id="Base" class="cls-7" d="M466.7,487.2v244.9c0,2.1-.6,2.5-2.8,2.5H2.9c-2.3,0-2.9-.4-2.9-2.6V243.6c0-3.9,0-3.8,4.3-4.2,14-1.2,27.6-4,40.4-9.4,23.8-10.1,39.6-26.8,49-48.8,5.5-12.8,8.4-26.1,9.8-39.7,2-19.2,1-38.4-1.6-57.5-3-21.5-8-42.6-14.7-63.4-.5-1.7-.6-2.6,1.7-3.3,15.9-4.4,31.8-9.1,47.7-13.7,1.1-.3,1.8-.4,2.6.6,16,20,38.1,31.5,64.2,36.8,30.5,6.2,60,3.4,88.1-9.4,14.1-6.4,26-15.4,35.2-27.2.4-.6.9-.9,1.3-1.1.9-.3,1.8,0,1.8,0l-.9-.2s23,4.9,49.8,14.4c1,.3,1.8.6,2.1.8,0,.5,0,1.2-.1,2.1-1.5,25.8-11.2,41.9-13.3,53.9-3.2,18.8-4.8,37.7-3.9,56.7.9,19.5,4.4,38.6,13.6,56.4,13.3,25.9,35.5,41.9,65.9,48.7,6.8,1.5,13.7,2.7,20.7,3.1,2.1.1,2.7.8,2.7,2.7v245.1h.3v.2h0Z"/>
<path id="Middlein" class="cls-4" d="M229.8,46c-22.5,0-47-6.1-69-20-3.2-2-6.3-4.2-9.2-6.6-8.4-6.8-12-11.6-13.2-13.1-.8-1.1-1.4-2.1-1.8-2.7.9-.3,1.9-.5,2.8-.8,1.3-.4,2.6-.7,3.9-1,1,.7,2.4,1.7,4.1,3,11.2,8.2,17.1,13.7,20.5,15.8,10.1,6.1,21.2,10.7,33.2,13.8,21,5.5,42.1,5.7,63.2.5,6.8-1.7,18.4-5.1,31.3-12.1s22.2-15,28.3-21.2c1,.3,2,.6,3,1,1.1.4,2.2.7,3.3,1.1-.2.3-.3.6-.5,1s-.3.5-.4.7c0,0-3.9,5.2-9.6,10.3-16.1,14.7-35.8,23.2-57.6,27.7-9.4,1.9-19,2.7-32.5,2.7h.2v-.1h0Z"/>
<path id="Middleout" class="cls-6" d="M229.6,40.5c-21.1,0-44-5.6-64.6-18.3-3.6-2.2-7-4.7-10.2-7.3-6.1-5.1-9.6-9.4-10.7-10.7-.7-.9-1.2-1.6-1.6-2.1.6-.3,1.5-.6,2.6-.9,1.3-.4,2.5-.8,3.6-.6,1.4.2,2.6,1,3.9,2.2,14,13.2,30.9,22.2,50.3,27.1,10.3,2.6,20.6,3.9,30.9,3.9s14.1,0,28.3-3.4c8.3-1.9,16.6-3.8,26-9,13-7.2,18.9-12.3,18.9-12.3,2.6-2.4,4.6-4.3,5.9-5.5,2.3-2.2,3.3-3.2,5-3.5,2.1-.4,3.9.5,5,1.1h0l-1-.5s.9.4,2.3,1.1c-.2.2-.4.5-.6.8s-.4.5-.7.8c0,0-4.3,5.4-9,9.5-15.1,13.5-33.5,21.3-53.9,25.4-8.8,1.8-17.8,2.4-30.4,2.5v-.3h0Z"/>
<path id="Leftin" class="cls-4" d="M106.3,119.9c-.2,19.8-2.1,37.2-8,54.2-4.1,11.9-10,23.1-18.6,33-11,12.7-25.1,21.4-41.7,26.9-14.5,4.8-27.1,6-35,6.6-1.1,0-2.1.1-2.7.2v-2.4c0-1.4,0-2.7-.2-4,6.4-.5,15.3-1.6,25.7-4.4,9.9-2.7,27.7-7.6,42.6-21.2,12.2-11.2,17.2-22.9,21.1-34,6-17.2,7.9-35,7.8-52.9,0-16.2-1.8-32.3-4.6-48.4-2.6-14.9-6-29.6-10.3-44.2-.2-.6-2.1-3.4-2.3-7.4v-1.6c.9-.5,1.6-.8,2.1-.9.3,0,.9-.2,1.9-.6.9-.3,1.4-.4,1.8-.6.7-.2,1.4-.5,1.9-.7,1.4,3.7,3.3,8.7,5.1,14.7,1.9,6.2,3,10.7,4.3,16.2,3.5,14.3,5.1,24.7,5.5,27.1.8,5.1,1.3,9.2,1.6,11.4,1.4,11.6,2.2,23.2,1.9,32.8v.2h.1Z"/>
<path id="Leftout" class="cls-6" d="M100.7,118.2c0,19.1-1.6,36.1-7,52.6-3.8,11.6-9.4,22.4-17.5,32.1-4.8,5.7-9.2,9.3-10.7,10.6-2.3,1.9-12.4,9.9-28.3,15.7-7.9,2.8-14.3,4-17.9,4.7-7.4,1.4-13.9,1.9-19,2.1v-1.9c0-2.1,0-3.7.8-4.5.7-.7,2.1-.7,5-.9,23-1.5,43.5-8.1,59.5-23.9,9.6-9.5,15.8-20.8,19.9-33.1,5.6-16.7,7.2-33.9,6.9-51.3-.2-15.7-2.1-31.3-5-46.8-2.6-14.4-6.1-28.6-10.4-42.7-.7-2.4-1.5-4.8-2.3-7.2-.2-.6-.3-1.2,0-1.6s.8-.6,1.3-.7c3.5-1,2.4-1,5.2-1.6.6-.2,1.2-.3,1.5-.3,1.3,3.7,3,8.9,4.9,15.2,1.6,5.2,3.2,10.6,4.1,14,4.4,16.3,6.3,31.5,7.1,37.8,1.5,11.2,2.4,22.4,2.3,31.8h-.4v-.1h0Z"/>
<path id="Rightin" class="cls-4" d="M360.6,119.9c.2,19.8,2.1,37.2,8,54.2,4.1,11.9,10,23.1,18.6,33,11,12.7,25.1,21.4,41.7,26.9,14.5,4.8,27.1,6,35,6.6,1.1,0,2.1.1,2.7.2v-2.4c0-1.4,0-2.7.2-4-6.4-.5-15.3-1.6-25.7-4.4-9.9-2.7-27.7-7.6-42.6-21.2-12.2-11.2-17.2-22.9-21.1-34-6-17.2-7.9-35-7.8-52.9,0-16.2,1.8-32.3,4.6-48.4,2.6-14.9,6-29.6,10.3-44.2.2-.6,2.1-3.4,2.3-7.4v-1.6c-.9-.5-1.6-.8-2.1-.9-.3,0-.9-.2-1.9-.6-.9-.3-1.4-.4-1.8-.6-.7-.2-1.4-.5-1.9-.7-1.4,3.7-3.3,8.7-5.1,14.7-1.9,6.2-3,10.7-4.3,16.2-3.5,14.3-5.1,24.7-5.5,27.1-.8,5.1-1.3,9.2-1.6,11.4-1.4,11.6-2.2,23.2-1.9,32.8v.2h-.1Z"/>
<path id="Rightout" class="cls-6" d="M366.2,118.2c0,19.1,1.6,36.1,7,52.6,3.8,11.6,9.4,22.4,17.5,32.1,4.8,5.7,9.2,9.3,10.7,10.6,2.3,1.9,12.4,9.9,28.3,15.7,7.9,2.8,14.3,4,17.9,4.7,7.4,1.4,13.9,1.9,19,2.1v-1.9c0-2.1,0-3.7-.8-4.5s-2.1-.7-5-.9c-23-1.5-43.5-8.1-59.5-23.9-9.6-9.5-15.8-20.8-19.9-33.1-5.6-16.7-7.2-33.9-6.9-51.3.2-15.7,2.1-31.3,5-46.8,2.6-14.4,6.1-28.6,10.4-42.7.7-2.4,1.5-4.8,2.3-7.2.2-.6.3-1.2,0-1.6s-.8-.6-1.3-.7c-3.5-1-2.4-1-5.2-1.6-.6-.2-1.2-.3-1.5-.3-1.3,3.7-3,8.9-4.9,15.2-1.6,5.2-3.2,10.6-4.1,14-4.4,16.3-6.3,31.5-7.1,37.8-1.5,11.2-2.4,22.4-2.3,31.8h.4v-.1Z"/>
<text id="Number" class="cls-2" transform="translate(183.35 543.7)">
<tspan x="0" y="0">#</tspan>
</text>
<text id="Text" class="cls-1" transform="translate(21.24 334)">
<tspan x="0" y="0">sample</tspan>
<tspan class="cls-8" x="253.56" y="0"> </tspan>
<tspan class="cls-5" x="270.78" y="0">tex</tspan>
<tspan class="cls-8" x="387.42" y="0">t</tspan>
</text>
<image id="Logo" class="cls-3" width="4501" height="4500" transform="translate(205.79 145.53) scale(.01)" xlink:href="Logo.png"/></svg>
